<?xml version='1.0' encoding='iso-8859-1'?>
<svg version="1.1" xmlns="http://www.w3.org/2000/svg" viewBox="0 0 510.985 510.985" xmlns:xlink="http://www.w3.org/1999/xlink" enable-background="new 0 0 510.985 510.985">
  <g>
    <path d="m398.952,93.338l-1.022-1.035-22.113-9.683h-0.006-62.692-1.948c-6.834-4.286-29.177-16.901-55.678-16.901-26.501,0-48.844,12.615-55.685,16.901h-1.929-62.679-0.006l-6.732,2.945-15.406,6.745-113.056,113.464 74.438,74.521 54.682-54.688v219.66h252.765 0.006v-219.622l54.656,54.65 0,0 74.438-74.521-112.033-112.436zm-143.459-12.251c20.037,0 37.832,8.91 45.28,13.222-2.6,11.887-17.271,20.114-45.299,32.863-28.053-12.634-42.712-20.81-45.28-32.863 7.416-4.318 25.147-13.222 45.299-13.222zm-50.977,16.907l.109-.077c3.251,12.072 14.173,19.571 50.703,36.529h0.351c36.529-16.946 47.458-24.457 50.703-36.523l.102,.07h5.353c-3.366,15.074-15.119,23.365-54.426,41.581l-.537,.249h-2.727l-.537-.249c-39.301-18.217-51.054-26.501-54.426-41.581h5.332zm-130.072,160.559l-52.74-52.791 23.837-23.927 52.785,52.829-23.882,23.889zm292.079,171.346h-222.036v-11.727c0.473-0.3 1.028-0.485 1.635-0.485h7.186c1.693,0 3.072,1.386 3.072,3.079v0.524 0.377c0,0.026 0.006,0.051 0.006,0.064 0.006,0.3 0.026,0.447 0.051,0.524 0.275,1.424 1.527,2.497 3.021,2.497h8.725c1.571,0 2.862-1.201 3.04-2.734 0.013-0.038 0.019-0.128 0.026-0.275 0-0.026 0.006-0.051 0.006-0.077v-0.377-0.524c0-1.699 1.386-3.079 3.072-3.079h7.192c1.693,0 3.066,1.386 3.066,3.079v0.524 0.377c0,0.026 0.006,0.051 0.006,0.064 0.013,0.3 0.032,0.447 0.057,0.524 0.275,1.424 1.52,2.497 3.015,2.497h8.725c1.488,0 2.74-1.073 3.015-2.497 0.026-0.077 0.045-0.224 0.057-0.524 0-0.013 0.006-0.038 0.006-0.064v-0.377-0.524c0-1.699 1.38-3.079 3.066-3.079h7.192c1.693,0 3.072,1.386 3.072,3.079v0.524 0.377c0,0.026 0,0.051 0,0.064 0.013,0.3 0.032,0.447 0.057,0.524 0.275,1.424 1.52,2.497 3.015,2.497h8.725c1.488,0 2.74-1.073 3.015-2.497 0.032-0.077 0.045-0.224 0.057-0.524 0-0.013 0.006-0.038 0.006-0.064v-0.377-0.524c0-1.699 1.38-3.079 3.066-3.079h7.192c1.693,0 3.072,1.386 3.072,3.079v0.524 0.377c0,0.026 0.006,0.051 0.006,0.064 0.006,0.3 0.026,0.447 0.051,0.524 0.275,1.424 1.52,2.497 3.015,2.497h8.725c1.488,0 2.747-1.073 3.021-2.497 0.026-0.077 0.045-0.224 0.051-0.524 0-0.013 0.006-0.038 0.006-0.064v-0.377-0.524c0-1.699 1.386-3.079 3.072-3.079h7.186c1.693,0 3.072,1.386 3.072,3.079v0.524 0.377c0,0.026 0,0.051 0,0.064 0.013,0.3 0.026,0.447 0.057,0.524 0.275,1.424 1.527,2.497 3.021,2.497h8.725c1.482,0 2.74-1.073 3.015-2.497 0.032-0.077 0.045-0.224 0.057-0.524 0-0.013 0-0.038 0-0.064v-0.377-0.524c0-1.699 1.386-3.079 3.072-3.079h7.192c1.686,0 3.066,1.386 3.066,3.079v0.524 0.377c0,0.026 0,0.051 0,0.064 0.013,0.3 0.026,0.447 0.064,0.524 0.275,1.424 1.52,2.497 3.015,2.497h8.725c1.482,0 2.74-1.073 3.015-2.497 0.032-0.077 0.045-0.224 0.057-0.524 0-0.013 0-0.038 0-0.064v-0.377-0.524c0-1.699 1.386-3.079 3.072-3.079h7.192c1.699,0 3.066,1.386 3.066,3.079v0.524 0.377c0,0.026 0,0.051 0,0.064 0.013,0.3 0.038,0.447 0.064,0.524 0.275,1.424 1.52,2.497 3.015,2.497h8.725c1.482,0 2.74-1.073 3.015-2.497 0.032-0.077 0.045-0.224 0.057-0.524 0-0.013 0.013-0.038 0.013-0.064v-0.377-0.524c0-1.699 1.373-3.079 3.06-3.079h7.192c1.699,0 3.066,1.386 3.066,3.079v0.524 0.377c0,0.026 0,0.051 0.013,0.064 0,0.3 0.026,0.447 0.051,0.524 0.275,1.424 1.52,2.497 3.015,2.497h8.725c0.313,0 0.607-0.064 0.888-0.134v5.282zm.007-6.412c-0.473,0.3-1.035,0.485-1.654,0.485h-7.192c-1.686,0-3.066-1.386-3.066-3.066v-0.524-0.39c0-0.026 0-0.038 0-0.064-0.013-0.147-0.026-0.236-0.038-0.275-0.16-1.533-1.463-2.747-3.04-2.747h-8.725c-1.571,0-2.868,1.207-3.047,2.747-0.013,0.038-0.013,0.128-0.026,0.275 0,0.026 0,0.038 0,0.064v0.39 0.524c0,1.699-1.386,3.066-3.072,3.066h-7.192c-1.699,0-3.066-1.386-3.066-3.066v-0.524-0.39c0-0.026 0-0.038-0.013-0.064 0-0.147-0.013-0.236-0.026-0.275-0.16-1.533-1.463-2.747-3.04-2.747h-8.725c-1.571,0-2.868,1.207-3.047,2.747-0.013,0.038-0.026,0.128-0.026,0.275 0,0.026-0.013,0.038-0.013,0.064v0.39 0.524c0,1.699-1.373,3.066-3.06,3.066h-7.192c-1.699,0-3.066-1.386-3.066-3.066v-0.524-0.39c0-0.026-0.013-0.038-0.013-0.064 0-0.147-0.013-0.236-0.026-0.275-0.172-1.533-1.463-2.747-3.04-2.747h-8.725c-1.578,0-2.868,1.207-3.047,2.747-0.013,0.038-0.026,0.128-0.026,0.275 0,0.026-0.013,0.038-0.013,0.064v0.39 0.524c0,1.699-1.386,3.066-3.066,3.066h-7.186c-1.699,0-3.066-1.386-3.066-3.066v-0.524-0.39c0-0.026-0.013-0.038-0.013-0.064 0-0.147-0.013-0.236-0.026-0.275-0.172-1.533-1.463-2.747-3.047-2.747h-8.719c-1.578,0-2.868,1.207-3.047,2.747-0.013,0.038-0.019,0.128-0.026,0.275 0,0.026-0.006,0.038-0.006,0.064v0.39 0.524c0,1.699-1.386,3.066-3.072,3.066h-7.186c-1.699,0-3.072-1.386-3.072-3.066v-0.524-0.39c0-0.026-0.006-0.038-0.006-0.064-0.006-0.147-0.019-0.236-0.032-0.275-0.166-1.533-1.463-2.747-3.04-2.747h-8.725c-1.571,0-2.862,1.207-3.04,2.747-0.013,0.038-0.019,0.128-0.026,0.275 0,0.026-0.006,0.038-0.006,0.064v0.39 0.524c0,1.699-1.386,3.066-3.072,3.066h-7.192c-1.693,0-3.066-1.386-3.066-3.066v-0.524-0.39c0-0.026-0.006-0.038-0.013-0.064 0-0.147-0.013-0.236-0.026-0.275-0.166-1.533-1.463-2.747-3.04-2.747h-8.725c-1.578,0-2.868,1.207-3.04,2.747-0.013,0.038-0.026,0.128-0.032,0.275 0,0.026-0.006,0.038-0.006,0.064v0.39 0.524c0,1.699-1.38,3.066-3.066,3.066h-7.192c-1.693,0-3.072-1.386-3.072-3.066v-0.524-0.39c0-1.686-1.38-3.066-3.066-3.066h-8.725c-1.488,0-2.747,1.073-3.015,2.497-0.032,0.077-0.051,0.224-0.057,0.524 0,0.026-0.006,0.038-0.006,0.064v0.39 0.511c0,1.699-1.386,3.079-3.072,3.079h-7.186c-1.693,0-3.072-1.386-3.072-3.079v-0.511-0.39c0-0.026-0.006-0.051-0.006-0.077-0.006-0.147-0.013-0.224-0.026-0.262-0.172-1.533-1.463-2.747-3.04-2.747h-8.725c-0.307,0-0.594,0.064-0.869,0.134v-5.991h222.037l-.007,12.419zm0-14.71h-222.036v-6.151h222.036c0,0 0,6.151 0,6.151zm0-220.222l0,0v211.765h-222.036v-211.797l-43.44,43.44-52.791-52.842 73.256-73.531 .37-.37 16.524-7.224h56.822c0.428,1.929 1.028,3.769 1.769,5.531h-52.235l-20.746,9.07-25.415,25.811 5.474,5.391 24.368-24.751 17.916-7.837h55.123c9.99,13.139 29.407,21.819 50.862,31.4l3.149,1.405 3.143-1.424c21.366-9.638 40.706-18.37 50.722-31.387h55.154l17.923,7.837 24.457,24.84 5.474-5.391-25.498-25.901-20.746-9.07h-52.21c0.76-1.763 1.361-3.602 1.795-5.531h56.866l16.498,7.224 73.639,73.901-52.842,52.798-43.345-43.357zm70.012,69.998l-23.914-23.921 52.83-52.785 23.825,23.914-52.741,52.792z"/>
  </g>
</svg>
